<svg xmlns="http://www.w3.org/2000/svg" width="1000" height="1000" viewBox="0 0 1000 1000" version="1.1">
	<path d="M 159.442 301.250 C 159.650 301.938, 162.618 313.874, 166.037 327.776 L 172.254 353.053 177.667 359.776 C 184.416 368.161, 191.373 382.014, 194.101 392.500 C 196.682 402.423, 197.248 425.907, 195.148 436 L 193.796 442.500 200.439 469 C 204.093 483.575, 207.310 496.258, 207.588 497.185 C 208.046 498.713, 206.433 498.899, 190.297 499.185 C 174.268 499.469, 172.370 499.326, 171.189 497.744 C 169.304 495.218, 164.580 493, 161.088 493 C 158.429 493, 157.953 492.539, 157.017 489.061 C 156.407 486.799, 155.792 470.519, 155.570 450.811 C 155.163 414.577, 154.570 408.865, 149.935 396.531 C 148.371 392.369, 146.094 388.963, 142.411 385.281 C 139.507 382.376, 136.730 380, 136.242 380 C 135.753 380, 136.471 383.262, 137.837 387.250 C 143.539 403.890, 139.131 430.652, 128.361 444.771 C 124.315 450.076, 114.692 456.626, 100.500 463.734 C 93.350 467.316, 84.922 472.049, 81.771 474.253 C 64.371 486.424, 56.047 511.836, 61.710 535.500 C 64.397 546.730, 64.007 551.346, 59.639 560 C 57.558 564.125, 52.980 571.550, 49.468 576.500 C 27.767 607.080, 22.428 616.798, 19.323 631.370 C 15.585 648.916, 21.270 668.521, 35.426 686.897 C 42.644 696.268, 60.604 712.771, 79.025 726.961 C 88.636 734.364, 99.718 743.510, 103.651 747.284 L 110.802 754.146 112.959 748.381 C 114.145 745.210, 115.848 738.152, 116.744 732.695 C 118.689 720.849, 119.909 722.070, 120.743 736.694 C 121.341 747.184, 119.807 753.513, 114.960 760.558 C 111.548 765.517, 104.322 770.394, 97.809 772.131 C 95.230 772.820, 93.325 773.717, 93.578 774.126 C 94.735 775.999, 106.074 778.371, 114 778.399 C 123.856 778.433, 129.228 776.499, 135.822 770.541 C 148.791 758.825, 154.211 740.556, 149.512 724.394 C 147.756 718.352, 143.087 708.399, 139.873 703.846 C 138.843 702.386, 138 700.923, 138 700.596 C 138 700.268, 257.700 700, 404 700 L 670 700 670 600.500 L 670 501 828.500 501 L 987 501 987 482.500 L 987 464 964 464 L 941 464 941 382 L 941 300 918.500 300 L 896 300 896 381.500 L 896 463 858 463 L 820 463 820 438.515 L 820 414.030 849.750 413.765 L 879.500 413.500 879.500 393.500 L 879.500 373.500 850 373.295 L 820.500 373.090 820.227 355.560 L 819.954 338.030 849.727 337.765 L 879.500 337.500 879.772 318.750 L 880.044 300 830.022 300 L 780 300 780 382 L 780 464 738 464 C 714.900 464, 696 463.694, 696 463.321 C 696 462.695, 706.928 441.850, 741.514 376.500 C 763.038 335.830, 760.662 342.672, 761.221 319.750 L 761.702 300 706.829 300 L 651.956 300 652.228 318.750 L 652.500 337.500 685.059 338 L 717.618 338.500 697.526 377 C 686.476 398.175, 669.587 430.506, 659.997 448.846 L 642.560 482.191 640.223 474.346 C 638.938 470.031, 635.026 457.050, 631.531 445.500 C 628.036 433.950, 621.506 412.350, 617.021 397.500 C 612.536 382.650, 605.332 358.800, 601.012 344.500 C 596.693 330.200, 591.929 314.337, 590.425 309.250 L 587.691 300 568.423 300 L 549.155 300 548.129 303.250 C 545.781 310.690, 507.389 435.624, 503.494 448.500 L 499.259 462.500 462.130 462.762 L 425 463.024 425 438.012 L 425 413 454.521 413 L 484.042 413 483.771 393.250 L 483.500 373.500 454.250 373.235 L 425 372.970 425 355.500 L 425 338.030 454.250 337.765 L 483.500 337.500 483.772 318.750 L 484.044 300 435.522 300 L 387 300 387 399.031 C 387 478.019, 386.744 498.161, 385.734 498.549 C 385.037 498.816, 372.957 498.914, 358.889 498.767 L 333.311 498.500 357.124 400 C 370.221 345.825, 380.951 301.153, 380.969 300.728 C 380.986 300.303, 372.588 300.078, 362.306 300.228 L 343.612 300.500 337.844 328.500 C 334.672 343.900, 328.827 372.370, 324.855 391.767 C 320.883 411.164, 317.325 426.689, 316.947 426.267 C 316.569 425.845, 313.268 412, 309.610 395.500 C 305.953 379, 299.684 350.875, 295.679 333 L 288.397 300.500 271.363 300.227 L 254.329 299.954 253.070 305.727 C 252.377 308.902, 248.016 328.150, 243.378 348.500 C 238.740 368.850, 233.104 393.600, 230.854 403.500 C 228.603 413.400, 226.432 421.861, 226.028 422.303 C 225.625 422.744, 224.522 419.144, 223.577 414.303 C 222.633 409.461, 219.002 392, 215.509 375.500 C 212.016 359, 207.017 335.262, 204.400 322.750 L 199.641 300 179.352 300 C 163.585 300, 159.147 300.279, 159.442 301.250 M 145.667 331.667 C 144.243 333.090, 145.076 341.725, 147 345.500 C 149.592 350.584, 149.527 350.834, 146.371 347.924 C 143.069 344.880, 141 340.105, 141 335.532 C 141 332.197, 140.814 332, 137.674 332 C 135.491 332, 133.602 332.795, 132.174 334.314 C 129.065 337.624, 129.404 339.458, 133.175 339.723 C 134.920 339.846, 136.773 340.373, 137.294 340.894 C 137.891 341.491, 136.760 341.643, 134.238 341.305 C 126.359 340.248, 119.940 343.929, 114.308 352.733 C 111.716 356.785, 109.747 358.608, 106.426 360.032 C 101.303 362.228, 100.619 364.974, 104.095 369.393 C 110.985 378.152, 128.238 379.205, 142.958 371.764 C 149.998 368.206, 154.675 362.823, 155.892 356.877 L 156.584 353.500 160.655 359.500 C 165.946 367.298, 170.703 376.788, 173.631 385.390 C 182.779 412.266, 180.071 446.095, 166.385 475.909 C 164.514 479.983, 163.146 483.480, 163.345 483.678 C 164.059 484.392, 175.596 469.772, 180.263 462.241 C 190.113 446.347, 194.586 429.669, 193.566 412.645 C 192.122 388.523, 186.435 375.513, 167.518 353.047 C 162.676 347.298, 157.227 340.267, 155.408 337.423 C 153.588 334.579, 151.366 331.971, 150.468 331.626 C 148.353 330.815, 146.503 330.830, 145.667 331.667 M 121.413 355.492 C 117.665 361.213, 124.034 363.327, 128.361 357.797 C 131.367 353.956, 130.989 353, 126.464 353 C 123.925 353, 122.626 353.641, 121.413 355.492 M 556.897 388.259 L 546.294 421.500 566.293 421.771 C 577.292 421.920, 586.519 421.815, 586.797 421.537 C 587.075 421.258, 585.025 413.036, 582.240 403.265 C 579.456 393.494, 575.232 378.637, 572.852 370.250 C 570.473 361.863, 568.296 355.004, 568.013 355.009 C 567.731 355.013, 562.729 369.976, 556.897 388.259 M 267.552 380.250 C 266.597 384.788, 263.177 400.650, 259.953 415.500 C 256.728 430.350, 251.635 453.975, 248.634 468 C 245.633 482.025, 242.864 494.738, 242.480 496.250 L 241.783 499 270.892 499 C 296.043 499, 300 498.797, 300 497.507 C 300 496.198, 292.886 466.547, 274.865 392.750 C 272.078 381.337, 269.684 372, 269.544 372 C 269.404 372, 268.508 375.712, 267.552 380.250 M 532.831 478.750 L 526.436 498.500 566.873 498.761 C 589.114 498.905, 607.511 498.823, 607.755 498.578 C 607.999 498.334, 607.730 496.641, 607.157 494.817 C 606.583 492.993, 603.798 484.188, 600.967 475.250 L 595.819 459 567.523 459 L 539.226 459 532.831 478.750 M 128.622 477.826 C 127.580 479.483, 128.710 488.927, 130.587 494.247 C 131.364 496.449, 132 498.391, 132 498.562 C 132 498.733, 130.537 499.055, 128.750 499.277 C 126.963 499.498, 128.592 499.752, 132.372 499.840 L 139.244 500 137.623 497.750 C 134.101 492.861, 130.749 485.411, 130.119 481.068 C 129.681 478.058, 129.171 476.952, 128.622 477.826 M 99.830 496.454 C 107.449 502.063, 115.751 512.074, 120.930 521.897 L 124.938 529.500 124.969 524.905 C 124.994 521.244, 124.222 519.110, 121.176 514.405 C 116.630 507.386, 108.065 499.328, 100.628 495.073 C 93.062 490.744, 92.767 491.254, 99.830 496.454 M 693 535.500 L 693 547 839.500 547 L 986 547 986 535.500 L 986 524 839.500 524 L 693 524 693 535.500 M 578.760 527.483 C 567.220 530.659, 557.107 539.041, 552.321 549.395 C 549.697 555.073, 549.501 556.374, 549.520 568 C 549.539 579.609, 549.744 580.944, 552.400 586.734 C 555.666 593.855, 562.791 601.141, 569.283 603.997 C 571.602 605.017, 579.125 607.481, 586 609.473 C 609.381 616.246, 613.357 619.445, 612.783 631.022 C 612.209 642.623, 606.806 647.322, 593.913 647.434 C 582.135 647.536, 579.462 645.324, 577.882 634.172 C 577.372 630.569, 576.852 627.520, 576.727 627.397 C 576.602 627.273, 569.750 627.054, 561.500 626.909 L 546.500 626.646 546.677 631.573 C 547.304 649.077, 557.189 662.710, 573.895 669.113 C 581.032 671.848, 597.680 672.836, 605.855 671.010 C 619.130 668.044, 630.219 660.026, 635.234 649.766 C 641.258 637.443, 641.596 619.715, 636.023 608.395 C 630.593 597.366, 621.701 591.698, 600.701 585.878 C 580.633 580.317, 578.587 578.433, 579.150 566.034 C 579.642 555.197, 581.109 553.685, 591.649 553.153 C 604.514 552.503, 609.874 555.319, 610.938 563.286 L 611.500 567.500 624.770 567.779 C 640.083 568.101, 639.814 568.274, 637.975 559.311 C 635.524 547.364, 627.433 536.323, 617.367 531.187 C 607.657 526.233, 589.597 524.501, 578.760 527.483 M 157 599.500 L 157 670 171.500 670 L 186 670 186 626.300 C 186 600.158, 186.364 582.982, 186.906 583.550 C 187.404 584.073, 189.862 589.450, 192.367 595.500 C 194.873 601.550, 202.960 620.675, 210.340 638 L 223.757 669.500 237.885 669.777 L 252.014 670.055 251.757 599.777 L 251.500 529.500 237.250 529.223 L 223 528.945 223 569.173 C 223 594.083, 222.645 609.038, 222.067 608.450 C 221.282 607.651, 206.517 574.533, 190.770 538.250 L 186.755 529 171.878 529 L 157 529 157 599.500 M 283 599.500 L 283 670 319 670 L 355 670 355 656 L 355 642 333 642 L 311 642 311 625.500 L 311 609 332.500 609 L 354 609 354 595.500 L 354 582 332.500 582 L 311 582 311 570 L 311 558 332.500 558 L 354 558 354 543.500 L 354 529 318.500 529 L 283 529 283 599.500 M 372.044 530.750 C 372.069 531.712, 379.867 563.325, 389.373 601 L 406.657 669.500 419.532 669.500 L 432.407 669.500 434.729 658 C 436.007 651.675, 440.174 630.354, 443.990 610.619 C 447.806 590.885, 451.111 574.555, 451.335 574.331 C 451.559 574.107, 453.153 581.254, 454.878 590.212 C 456.602 599.170, 460.804 620.788, 464.215 638.250 L 470.416 670 483.170 670 L 495.923 670 497.051 665.812 C 497.671 663.508, 501.263 648.545, 505.032 632.562 C 508.802 616.578, 515.535 588.200, 519.994 569.500 C 524.454 550.800, 528.365 534.024, 528.687 532.220 L 529.271 528.940 515.905 529.220 L 502.538 529.500 495.888 558.500 C 492.230 574.450, 487.756 594.135, 485.946 602.245 C 484.137 610.354, 482.506 616.839, 482.322 616.656 C 482.139 616.472, 478.859 599.712, 475.034 579.411 C 471.208 559.110, 467.498 539.575, 466.789 536 L 465.500 529.500 452.080 529.220 C 444.699 529.066, 438.288 529.312, 437.832 529.768 C 437.376 530.224, 433.171 549.925, 428.487 573.548 C 423.803 597.172, 419.687 617.399, 419.339 618.498 C 418.977 619.645, 415.416 603.455, 410.981 580.498 C 406.731 558.499, 402.715 537.913, 402.056 534.750 L 400.858 529 386.429 529 C 373.337 529, 372.004 529.162, 372.044 530.750 M 121.806 568.230 C 120.324 570.548, 119.199 572.530, 119.306 572.634 C 119.413 572.738, 120.737 572.586, 122.250 572.295 C 124.687 571.827, 125 571.325, 125 567.883 C 125 565.748, 124.888 564.003, 124.750 564.007 C 124.612 564.011, 123.288 565.911, 121.806 568.230 M 73.353 578.653 C 72.130 594.203, 72.403 613.604, 73.934 620 C 75.748 627.581, 80.918 638.471, 85.686 644.756 C 87.879 647.646, 97.622 657.699, 107.337 667.095 L 125 684.178 125 638.135 L 125 592.091 121.250 591.481 C 119.188 591.145, 114.122 590.183, 109.994 589.343 C 104.972 588.322, 98.599 587.929, 90.742 588.158 L 78.997 588.500 78.999 584.432 C 79 580.254, 76.451 570.164, 75.012 568.653 C 74.569 568.187, 73.822 572.687, 73.353 578.653 M 693 585.500 L 693 597 839.500 597 L 986 597 986 585.500 L 986 574 839.500 574 L 693 574 693 585.500 M 122.500 581 C 122.840 581.550, 123.541 582, 124.059 582 C 124.577 582, 125 581.550, 125 581 C 125 580.450, 124.298 580, 123.441 580 C 122.584 580, 122.160 580.450, 122.500 581 M 693 635.500 L 693 647 839.500 647 L 986 647 986 635.500 L 986 624 839.500 624 L 693 624 693 635.500 M 693 684.500 L 693 696 839.500 696 L 986 696 986 684.500 L 986 673 839.500 673 L 693 673 693 684.500 M 218.502 704.575 C 211.329 708.315, 207.567 713.996, 201.484 730.272 C 196.694 743.085, 194.737 746.715, 197.610 737.453 C 199.400 731.684, 198.977 722.789, 196.702 718.391 C 192.672 710.597, 185.103 706.754, 177.983 708.887 C 169.164 711.529, 162.714 720.732, 162.714 730.675 C 162.714 737.012, 164.800 740.601, 169.664 742.633 C 177.248 745.802, 184.963 739.488, 185.798 729.428 C 186.219 724.341, 185.164 722.308, 183.500 725 C 182.570 726.505, 179.412 726.202, 177.975 724.470 C 176.146 722.266, 178.228 718.232, 181.637 717.376 C 185.403 716.431, 189 720.617, 189 725.944 C 189 730.211, 184.941 745.072, 181.888 751.980 C 180.017 756.215, 180.004 756.530, 181.646 757.730 C 183.981 759.438, 188.456 759.333, 192.028 757.485 C 196.293 755.280, 201.969 747.149, 208.798 733.460 C 215.198 720.632, 219.501 715, 222.901 715 C 225.472 715, 225.832 719.065, 223.437 721.052 C 222.021 722.227, 222.025 722.434, 223.475 723.246 C 227.611 725.560, 234.212 721.209, 235.449 715.354 C 236.259 711.518, 234.006 705.608, 231.150 704.080 C 228.233 702.519, 221.976 702.764, 218.502 704.575 M 408.984 707.835 C 404.541 710.174, 401.732 715.347, 402.418 719.924 C 402.700 721.808, 404.457 725.858, 406.322 728.924 C 410.331 735.516, 411.253 738.658, 409.913 741.162 C 408.737 743.360, 404.728 743.582, 403.036 741.544 C 401.220 739.355, 402.817 737.713, 406.121 738.374 C 408.136 738.777, 409 738.552, 409 737.623 C 409 735.260, 404.504 729.538, 401.520 728.103 C 397.887 726.356, 394.683 727.863, 391.273 732.924 C 388.482 737.065, 388.437 740.162, 391.084 746 C 394.973 754.577, 400.087 758.143, 408.500 758.143 C 414.928 758.143, 419.414 756.009, 422.040 751.701 C 425.562 745.926, 424.233 738.572, 417.974 729.198 C 413.535 722.551, 413.123 720.540, 415.895 719.056 C 418.782 717.511, 420.426 719.971, 418.836 723.460 C 417.830 725.669, 417.869 726.305, 419.057 727.056 C 421.419 728.551, 423.729 728.138, 426.544 725.716 C 431.822 721.176, 429.097 711.678, 421.456 707.979 C 416.376 705.520, 413.445 705.486, 408.984 707.835 M 606.556 706.910 C 606.247 707.410, 606.267 708.531, 606.601 709.401 C 607.698 712.263, 604.059 712.333, 595.177 709.622 C 581.315 705.392, 573.577 706.577, 566.077 714.077 C 555.617 724.537, 557.327 739, 569.023 739 C 572.440 739, 573.819 738.381, 576.600 735.600 C 579.345 732.855, 580 731.421, 580 728.159 C 580 723.957, 578.429 721.719, 577.386 724.437 C 576.536 726.652, 571.996 726.494, 572.015 724.250 C 572.036 721.912, 573.037 720.543, 575.786 719.095 C 578.105 717.874, 585.498 717.165, 586.410 718.077 C 586.684 718.351, 584.729 723.958, 582.067 730.537 C 577.072 742.878, 572.822 749, 569.248 749 C 566.631 749, 565.661 746.482, 567.551 744.592 C 568.839 743.303, 568.747 742.936, 566.786 741.563 C 563.472 739.241, 560.419 739.654, 556.766 742.918 C 553.924 745.458, 553.500 746.468, 553.500 750.712 C 553.500 759.533, 559.735 764.874, 568.377 763.457 C 574.006 762.533, 580.671 755.576, 583.876 747.275 C 585.183 743.891, 587.469 739.665, 588.956 737.884 L 591.659 734.646 595.800 736.303 C 598.077 737.214, 600.629 737.696, 601.470 737.373 C 603.512 736.590, 603.399 738.296, 601.112 742.790 C 598.619 747.689, 596.983 753.792, 597.678 755.602 C 599.295 759.818, 604.936 759.050, 609.502 753.992 L 611.500 751.779 612.004 754.640 C 612.424 757.021, 613.063 757.553, 615.818 757.818 C 618.604 758.086, 619.829 757.434, 623.563 753.700 C 627.648 749.615, 628 749.451, 628 751.632 C 628 755.286, 631.377 758, 635.923 758 C 638.877 758, 640.995 757.123, 644.493 754.454 L 649.139 750.907 646.366 755.639 C 644.288 759.184, 644.002 760.213, 645.226 759.744 C 646.123 759.399, 648.506 758.808, 650.520 758.430 C 653.672 757.839, 654.452 757.112, 656.128 753.202 C 657.199 750.704, 658.845 746.042, 659.787 742.842 C 661.481 737.089, 663.414 735.014, 665.312 736.912 C 665.950 737.550, 665.850 739.463, 665.027 742.405 C 662.843 750.202, 665.649 754.771, 670.620 751.513 C 673.048 749.923, 675.256 746.304, 676.426 742 L 677.106 739.500 675.143 741.750 C 672.233 745.085, 671.786 744.560, 672.523 738.666 C 673.056 734.399, 672.856 732.998, 671.523 731.666 C 669.471 729.614, 668.680 729.597, 664.950 731.526 C 663.328 732.365, 662 732.638, 662 732.133 C 662 730.854, 659.300 729.947, 657.524 730.629 C 656.713 730.940, 655.307 733.840, 654.400 737.072 C 653.024 741.975, 652.150 743.306, 649.125 745.098 C 645.025 747.527, 639.932 748.123, 639.273 746.250 C 638.994 745.456, 639.788 745, 641.449 745 C 645.780 745, 650.872 742.359, 651.520 739.777 C 652.405 736.249, 650.451 732.151, 647.535 731.420 C 642.735 730.215, 639.633 732.017, 631.334 740.829 C 626.843 745.598, 622.887 749.220, 622.544 748.877 C 622.202 748.535, 623.064 746.105, 624.461 743.478 C 628.404 736.061, 627.559 731, 622.377 731 C 620.175 731, 614 735.420, 614 736.995 C 614 737.445, 614.941 737.567, 616.092 737.266 L 618.184 736.719 616.189 740.609 C 614.045 744.792, 609.373 749.706, 608.434 748.768 C 608.119 748.452, 608.728 746.463, 609.788 744.347 C 615.369 733.211, 611.586 727.165, 603 733.500 C 598.928 736.504, 599.061 736.484, 599.710 734.002 C 600.547 730.800, 597.434 727, 593.974 727 C 591.004 727, 590.999 726.990, 592.335 723.750 C 593.825 720.140, 595.389 719.883, 602.560 722.072 C 607.465 723.570, 611.351 722.740, 614.586 719.505 C 617.655 716.436, 617.856 710.856, 615 708 C 612.960 705.960, 607.573 705.264, 606.556 706.910 M 823.270 707.483 C 815.315 710.941, 814.227 719.706, 820.493 729.857 C 824.877 736.960, 825.217 741.657, 821.415 742.611 C 819.708 743.039, 818.310 742.739, 817.297 741.726 C 815.240 739.669, 816.529 737.884, 819.825 738.224 C 822.012 738.450, 822.440 738.135, 822.171 736.500 C 821.638 733.262, 819.204 730.157, 815.830 728.412 C 812.987 726.942, 812.368 726.931, 809.497 728.300 C 806.046 729.946, 803 735.165, 803 739.433 C 803 745.452, 808.303 753.509, 814.338 756.661 C 815.900 757.476, 819.572 758.143, 822.500 758.143 C 831.284 758.143, 836.434 754.260, 837.659 746.714 C 838.406 742.112, 836.653 736.863, 831.890 729.430 C 827.700 722.893, 827.218 720.894, 829.394 719.088 C 830.472 718.194, 831.162 718.305, 832.435 719.578 C 833.929 721.071, 833.938 721.445, 832.541 723.577 C 831.118 725.749, 831.149 726.009, 832.934 726.965 C 835.764 728.479, 837.414 728.249, 840.365 725.927 C 846.038 721.465, 842.573 710.809, 834.329 707.364 C 830.247 705.659, 827.395 705.689, 823.270 707.483 M 297.500 708.164 C 293.433 710.408, 289.940 714.510, 288.942 718.214 C 288.100 721.343, 288.261 722.801, 289.844 726.380 C 291.405 729.910, 292.733 731.188, 296.844 733.118 C 302.451 735.750, 302.543 735.875, 300.735 738.347 C 299.555 739.962, 299.171 739.970, 294.985 738.472 C 284.815 734.831, 275 740.469, 275 749.950 C 275 758.292, 285.416 760.243, 295.091 753.715 L 298.500 751.414 304.823 754.707 C 312.062 758.477, 316.562 758.836, 322.541 756.120 C 331.792 751.918, 335.078 742.323, 329.195 736.687 C 325.891 733.522, 321.252 733.147, 316.936 735.697 C 313.639 737.644, 312.473 739.873, 313.967 741.367 C 314.535 741.935, 315 742.775, 315 743.232 C 315 744.768, 310.547 745.738, 307.837 744.793 L 305.163 743.861 307.832 739.560 C 310.041 735.999, 311.309 735.051, 315.199 734.050 C 324.023 731.780, 333.400 721.308, 332.812 714.381 C 332.358 709.030, 328.535 706.338, 323.669 707.944 C 319.136 709.440, 312.989 715.585, 309.058 722.551 C 305.853 728.231, 305.133 728.677, 301.934 726.965 C 297.475 724.578, 301.409 717.133, 306.460 718.401 C 309.100 719.063, 309.605 717.956, 309.150 712.500 C 308.779 708.054, 302.163 705.592, 297.500 708.164 M 494 707.685 C 491.445 708.655, 488.217 712.062, 486.946 715.131 C 485.618 718.336, 486.337 720.063, 488.217 718.183 C 490.145 716.255, 491 716.813, 491 720 C 491 722.998, 490.996 723, 485.035 723 C 480.161 723, 478.881 723.354, 478.035 724.934 C 476.455 727.886, 476.616 728, 482.358 728 L 487.717 728 484.250 736.750 C 480.710 745.684, 477 751.283, 477 747.690 C 477 746.725, 477.675 744.320, 478.500 742.346 C 480.406 737.783, 480.424 732.597, 478.539 731.032 C 476.811 729.599, 470.948 731.153, 468.935 733.578 C 467.879 734.851, 467.560 734.756, 466.605 732.881 C 464.910 729.548, 461.787 728.883, 457.358 730.909 C 445.999 736.107, 446.661 735.978, 444.694 733.369 C 442.217 730.086, 439.668 730.402, 435.060 734.565 C 428.061 740.888, 423.680 753.280, 427.200 756.800 C 428.849 758.449, 433.119 758.306, 435.676 756.514 C 437.552 755.200, 437.863 755.200, 438.367 756.514 C 439.145 758.543, 444.948 758.425, 447.954 756.320 C 450.212 754.738, 450.313 754.741, 449.688 756.372 C 449.101 757.900, 449.640 758.068, 454.261 757.802 L 459.500 757.500 463.020 748.596 C 466.233 740.470, 468.973 736.640, 470.489 738.155 C 470.810 738.477, 470.106 741.161, 468.923 744.120 C 465.167 753.517, 464.976 754.749, 466.906 757.133 C 469.295 760.082, 473.310 759.004, 477.672 754.242 C 480.480 751.177, 481 750.925, 481 752.630 C 481 755.104, 484.957 759, 487.469 759 C 488.481 759, 491.043 757.178, 493.161 754.951 L 497.012 750.903 497.958 753.391 C 500.821 760.921, 510.198 758.541, 514.402 749.217 C 515.897 745.901, 516.542 745.381, 518.652 745.784 C 520.419 746.122, 520.830 746.570, 520.070 747.330 C 518.136 749.264, 518.949 753.103, 521.923 756.077 C 525.329 759.483, 527.341 759.699, 531.580 757.114 C 536.089 754.365, 538.371 748.999, 537.053 744.250 C 535.579 738.944, 535.748 735.936, 537.638 733.847 C 538.973 732.372, 539.043 731.757, 538.016 730.519 C 535.729 727.764, 533.170 728.855, 529.145 734.304 C 526.443 737.962, 523.950 740.109, 521.113 741.223 L 517 742.839 517 739.054 C 517 734.335, 513.829 730, 510.378 730 C 505.024 730, 498.015 736.273, 498.004 741.076 C 498.002 741.942, 496.875 743.708, 495.500 745 L 493 747.349 493.052 743.924 C 493.080 742.041, 494.134 737.800, 495.395 734.500 L 497.687 728.500 503.093 728 C 507.757 727.569, 508.544 727.191, 508.820 725.250 C 509.112 723.192, 508.740 723, 504.463 723 C 500.398 723, 499.881 722.771, 500.514 721.250 C 501.662 718.490, 502.171 710.620, 501.284 709.329 C 500.290 707.882, 496.020 706.919, 494 707.685 M 710.411 708.891 C 706.248 711.430, 703.183 715.507, 702.433 719.504 C 701.280 725.654, 706.466 732.824, 713.311 734.542 C 716.338 735.302, 716.498 735.760, 714.605 738.254 C 713.366 739.886, 712.969 739.899, 708.887 738.443 C 702.647 736.218, 696.927 737.260, 692.507 741.428 C 689.726 744.051, 689 745.502, 689 748.434 C 689 753.278, 690.257 755.450, 693.945 756.977 C 697.889 758.611, 702.544 757.675, 708.147 754.122 C 712.616 751.288, 712.665 751.281, 715.220 753.142 C 718.676 755.659, 725.542 758.005, 729.376 757.978 C 733.834 757.947, 740.135 754.817, 743.291 751.066 C 750.956 741.957, 741.604 730.016, 731.072 735.463 C 727.756 737.178, 726.514 739.709, 728.069 741.583 C 730.398 744.389, 726.039 746.457, 721.679 744.615 L 719.040 743.500 721.770 739.257 C 723.272 736.924, 725.175 735.001, 726 734.985 C 728.827 734.930, 736.500 730.887, 739.838 727.693 C 743.843 723.861, 747 718.043, 747 714.494 C 747 710.617, 742.588 706.641, 739.200 707.465 C 732.547 709.083, 728.899 712.811, 720.403 726.672 C 719.462 728.207, 718.930 728.289, 716.653 727.252 C 713.800 725.952, 713.237 723.293, 715.086 719.839 C 715.975 718.178, 716.792 717.926, 719.586 718.450 L 723 719.091 723 714.602 C 723 711.097, 722.513 709.772, 720.777 708.557 C 717.813 706.481, 714.171 706.598, 710.411 708.891 M 907.418 707.969 C 904.548 709.130, 900 714.735, 900 717.112 C 900 718.738, 900.328 718.895, 901.934 718.035 C 904.750 716.528, 905 716.689, 905 720 C 905 722.989, 904.978 723, 899.200 723 C 893.500 723, 891 724.128, 891 726.700 C 891 727.610, 892.657 728, 896.520 728 L 902.041 728 900.157 731.750 C 899.122 733.813, 897.519 737.810, 896.596 740.632 C 895.673 743.455, 894.036 746.562, 892.959 747.537 C 891.075 749.242, 891 749.232, 891 747.277 C 891 746.159, 891.675 743.629, 892.500 741.654 C 894.403 737.099, 894.420 732.593, 892.539 731.032 C 890.811 729.599, 884.948 731.153, 882.935 733.578 C 881.879 734.851, 881.560 734.756, 880.605 732.881 C 878.910 729.548, 875.787 728.883, 871.358 730.909 C 859.999 736.107, 860.661 735.978, 858.694 733.369 C 856.297 730.191, 853.769 730.386, 849.573 734.070 C 842.859 739.965, 838.420 750.036, 840.237 755.250 C 841.012 757.472, 841.806 758, 844.375 758 C 846.124 758, 848.509 757.331, 849.676 756.514 C 851.552 755.200, 851.863 755.200, 852.367 756.514 C 853.099 758.422, 857.682 758.414, 861.355 756.499 C 863.912 755.165, 864.148 755.171, 863.617 756.557 C 863.120 757.852, 863.867 758.055, 868.208 757.802 L 873.393 757.500 876.947 748.594 C 880.177 740.497, 882.964 736.631, 884.478 738.145 C 884.794 738.460, 883.667 742.178, 881.974 746.407 C 878.607 754.816, 878.746 757.647, 882.574 758.608 C 885.341 759.302, 889.277 757.170, 892.714 753.113 C 894.906 750.526, 894.928 750.522, 894.964 752.750 C 895.010 755.618, 898.359 759, 901.155 759 C 902.372 759, 904.983 757.241, 907.155 754.958 C 909.270 752.735, 911 751.405, 911 752.003 C 911 754.002, 915.880 758, 918.320 758 C 921.907 758, 925.953 754.298, 928.616 748.579 C 929.916 745.785, 930.985 744.063, 930.990 744.750 C 930.996 745.438, 931.632 746, 932.405 746 C 933.448 746, 933.684 746.964, 933.321 749.750 C 932.945 752.638, 933.318 754.014, 934.944 755.738 C 939.696 760.775, 946.785 758.933, 949.962 751.836 C 951.532 748.329, 951.608 747.198, 950.545 743.152 C 949.223 738.119, 949.442 736.441, 951.768 733.769 C 952.993 732.363, 953.039 731.752, 952.016 730.519 C 949.397 727.364, 946.010 729.253, 941.615 736.320 C 940.651 737.872, 937.980 739.943, 935.681 740.924 L 931.500 742.707 930.819 738.259 C 930.445 735.812, 929.363 732.953, 928.414 731.905 C 924.444 727.518, 916.111 731.188, 912.809 738.777 C 910.263 744.626, 907.919 747.487, 906.952 745.923 C 906.063 744.485, 907.387 738.596, 909.936 732.650 C 911.922 728.015, 911.945 728, 916.857 728 C 920.429 728, 921.953 727.565, 922.393 726.418 C 923.531 723.453, 923 723, 918.383 723 C 914.061 723, 913.810 722.857, 914.447 720.750 C 914.821 719.513, 915.375 716.649, 915.678 714.387 C 916.150 710.868, 915.891 710.037, 913.892 708.637 C 911.303 706.824, 910.464 706.737, 907.418 707.969 M 319.903 722.260 C 319.105 722.942, 317.563 724.578, 316.476 725.896 C 314.504 728.286, 314.504 728.289, 316.511 727.238 C 318.986 725.943, 322.497 722.163, 321.838 721.504 C 321.572 721.238, 320.701 721.579, 319.903 722.260 M 733.872 722.052 C 732.986 722.548, 731.495 724.122, 730.559 725.550 C 728.932 728.033, 728.938 728.104, 730.690 727.166 C 732.920 725.972, 736.481 722.148, 735.902 721.569 C 735.672 721.338, 734.758 721.556, 733.872 722.052 M 235.919 730.823 C 232.347 732.638, 230.899 735, 233.358 735 C 236.769 735, 236.247 737.383, 229.574 752.303 L 226.979 758.105 232.186 757.803 L 237.393 757.500 240.947 748.594 C 244.177 740.497, 246.964 736.631, 248.478 738.145 C 248.794 738.460, 247.667 742.178, 245.974 746.407 C 242.633 754.749, 242.749 757.648, 246.459 758.579 C 250.190 759.516, 254.708 756.438, 257.983 750.728 C 261.788 744.093, 261.793 742.866, 258 746.500 C 255.230 749.154, 255 749.216, 255 747.309 C 255 746.173, 255.675 743.629, 256.500 741.654 C 258.403 737.099, 258.420 732.593, 256.539 731.032 C 254.811 729.599, 248.948 731.153, 246.935 733.578 C 245.879 734.851, 245.560 734.756, 244.605 732.881 C 242.946 729.620, 239.767 728.866, 235.919 730.823 M 369.145 734.304 C 366.443 737.962, 363.950 740.109, 361.113 741.223 L 357 742.839 357 739.054 C 357 731.191, 351.029 727.856, 344.299 731.960 C 340.027 734.564, 337.842 739.102, 337.238 746.620 C 336.782 752.303, 336.959 753.050, 339.324 755.415 C 344.267 760.358, 350.409 757.612, 354.616 748.579 C 355.916 745.785, 356.985 744.063, 356.990 744.750 C 356.996 745.438, 357.632 746, 358.405 746 C 359.456 746, 359.681 746.963, 359.297 749.821 C 358.845 753.189, 359.161 753.958, 361.969 756.321 C 365.612 759.386, 366.987 759.575, 370.901 757.551 C 376.504 754.654, 377.899 750.424, 376.448 740.725 C 375.873 736.876, 376.077 735.572, 377.505 733.994 C 378.954 732.394, 379.047 731.761, 378.016 730.519 C 375.729 727.764, 373.170 728.855, 369.145 734.304 M 786.399 729.765 C 785.794 730.169, 784.083 732.441, 782.597 734.813 C 780.760 737.746, 778.552 739.699, 775.697 740.917 L 771.500 742.707 770.819 738.259 C 769.957 732.624, 767.625 730, 763.480 730 C 756.732 730, 751.062 738.099, 751.022 747.795 C 751.004 752.102, 751.458 753.549, 753.455 755.545 C 758.254 760.345, 763.936 757.782, 768.412 748.800 C 769.836 745.944, 771 744.146, 771 744.804 C 771 745.462, 771.664 746, 772.475 746 C 773.587 746, 773.799 746.753, 773.338 749.060 C 772.548 753.012, 774.458 756.533, 778.245 758.101 C 780.758 759.143, 781.723 759.065, 784.432 757.607 C 790.288 754.453, 792.212 748.710, 789.998 740.993 C 789.151 738.042, 789.317 737.064, 791.071 734.691 C 792.721 732.458, 792.902 731.586, 791.951 730.441 C 790.662 728.887, 788.169 728.584, 786.399 729.765 M 214.941 732.703 C 210.794 736.193, 209 740.610, 209 747.333 C 209 754.114, 211.624 758, 216.205 758 C 222.665 758, 230.175 745.076, 228.598 736.671 C 227.329 729.906, 220.592 727.948, 214.941 732.703 M 451.647 741.250 C 448.891 747.744, 448.421 750, 449.826 750 C 452.519 750, 458.873 738.221, 457.434 735.894 C 456.058 733.667, 454.094 735.484, 451.647 741.250 M 865.205 741.690 C 860.758 751.261, 864.192 753.424, 868.969 744.061 C 871.505 739.090, 871.880 735.625, 869.925 735.235 C 868.832 735.017, 867.387 736.993, 865.205 741.690 M 439.853 739.006 C 436.814 743.057, 435.367 747, 436.918 747 C 438.552 747, 443.216 739.359, 442.824 737.325 C 442.540 735.848, 441.989 736.159, 439.853 739.006 M 853.216 739.900 C 849.990 744.314, 849.146 747, 850.986 747 C 852.581 747, 857.207 739.303, 856.803 737.320 C 856.513 735.893, 855.738 736.451, 853.216 739.900 M 219.716 739.904 C 217.926 742.934, 217.410 747, 218.815 747 C 219.263 747, 220.388 745.410, 221.315 743.466 C 224.263 737.285, 222.967 734.400, 219.716 739.904 M 348.220 740 C 345.906 743.661, 345.312 747, 346.974 747 C 348.478 747, 351.163 741.128, 350.777 738.682 C 350.465 736.707, 350.223 736.832, 348.220 740 M 508.220 740 C 505.906 743.661, 505.312 747, 506.974 747 C 508.478 747, 511.163 741.128, 510.777 738.682 C 510.465 736.707, 510.223 736.832, 508.220 740 M 641.980 738.524 C 640.048 740.853, 641.426 741.291, 643.494 739.006 C 644.493 737.903, 644.845 737, 644.277 737 C 643.710 737, 642.676 737.686, 641.980 738.524 M 762.197 740 C 759.861 743.735, 759.326 747, 761.051 747 C 762.415 747, 765.216 740.296, 764.748 738.152 C 764.484 736.942, 763.801 737.437, 762.197 740 M 922.197 740 C 919.861 743.735, 919.326 747, 921.051 747 C 922.415 747, 925.216 740.296, 924.748 738.152 C 924.484 736.942, 923.801 737.437, 922.197 740 M 365 743.813 C 362.986 745.460, 362.745 746.107, 363.757 747.136 C 364.777 748.173, 365.315 748.114, 366.603 746.825 C 367.477 745.951, 368.036 744.456, 367.846 743.502 C 367.529 741.913, 367.290 741.939, 365 743.813 M 525 743.991 C 522.991 745.518, 522.747 746.140, 523.757 747.153 C 524.769 748.168, 525.325 748.104, 526.603 746.825 C 527.477 745.951, 528.036 744.528, 527.846 743.663 C 527.544 742.290, 527.181 742.331, 525 743.991 M 779.250 743.529 C 776.759 745.283, 776.229 748, 778.378 748 C 780.262 748, 782.238 745.439, 781.833 743.521 C 781.530 742.089, 781.295 742.089, 779.250 743.529 M 939.250 743.529 C 936.759 745.283, 936.229 748, 938.378 748 C 940.262 748, 942.238 745.439, 941.833 743.521 C 941.530 742.089, 941.295 742.089, 939.250 743.529 M 285.090 745.392 C 283.378 747.454, 284.551 749.003, 287.809 748.985 C 291.294 748.965, 293.821 747.414, 292.492 746.112 C 290.552 744.213, 286.403 743.809, 285.090 745.392 M 699.090 745.392 C 697.378 747.454, 698.551 749.003, 701.809 748.985 C 705.294 748.965, 707.821 747.414, 706.492 746.112 C 704.552 744.213, 700.403 743.809, 699.090 745.392" stroke="none" fill="black" fill-rule="evenodd"/>
</svg>