<svg xmlns="http://www.w3.org/2000/svg" viewBox="337 185 754 478" width="937"><defs><style>.cls-1{fill:#911;stroke:#911;stroke-width:10px;}.cls-1,.cls-2{stroke-miterlimit:10;}.cls-2{fill:#e6e6e6;stroke:#e6e6e6;stroke-width:7px;}</style></defs><g id="Ebene_4" data-name="Ebene 4"><path class="cls-1" d="M726.34,193.93a21.92,21.92,0,0,0-22.69,0L355.84,403.06a23.41,23.41,0,0,0-11.53,18.61q0,.65,0,1.29t0,1.29a23.45,23.45,0,0,0,11.46,18.59L703.65,653.93a21.87,21.87,0,0,0,22.69,0l347.87-211.09a23.43,23.43,0,0,0,11.47-18.59q0-.64,0-1.29t0-1.29a23.41,23.41,0,0,0-11.53-18.61Z"/><path class="cls-2" d="M642.86,328.88v191A7.94,7.94,0,0,0,654,527.1L844.6,432.85a9.46,9.46,0,0,0,0-17L654,321.64A7.94,7.94,0,0,0,642.86,328.88Z"/></g></svg>
